<svg xmlns="http://www.w3.org/2000/svg" viewBox="0 0 120 120" fill="none" stroke="#e8cf98" stroke-width="2.4" stroke-linecap="round" stroke-linejoin="round">
  <!-- outer ring: the cycle -->
  <circle cx="60" cy="60" r="56" stroke-opacity=".55"/>
  <!-- crescent moon -->
  <path d="M68 16a12 12 0 1 0 0 20a15 15 0 1 1 0-20z" fill="#e8cf98" stroke="none"/>
  <!-- trunk -->
  <path d="M60 92V54"/>
  <!-- branches -->
  <path d="M60 70c-8-4-16-6-24-14"/>
  <path d="M60 64c8-4 16-8 22-16"/>
  <path d="M60 56c-4-6-6-10-14-14"/>
  <path d="M60 58c4-6 8-8 10-14"/>
  <path d="M36 56c-4 0-8-2-10-6"/>
  <path d="M82 48c4 0 8-2 9-6"/>
  <!-- canopy leaves -->
  <circle cx="26" cy="48" r="3" fill="#e8cf98" stroke="none"/>
  <circle cx="36" cy="52" r="2.5" fill="#e8cf98" stroke="none"/>
  <circle cx="46" cy="40" r="3" fill="#e8cf98" stroke="none"/>
  <circle cx="70" cy="42" r="3" fill="#e8cf98" stroke="none"/>
  <circle cx="82" cy="46" r="2.5" fill="#e8cf98" stroke="none"/>
  <circle cx="92" cy="40" r="3" fill="#e8cf98" stroke="none"/>
  <!-- roots -->
  <path d="M60 92c-6 4-14 6-24 6"/>
  <path d="M60 92c6 4 14 6 24 6"/>
  <path d="M60 92c-2 5-6 9-12 12"/>
  <path d="M60 92c2 5 6 9 12 12"/>
  <path d="M60 92v14"/>
</svg>
