<svg xmlns="http://www.w3.org/2000/svg" viewBox="-107.00 -107.00 214.00 214.00" role="img" aria-label="Sisters of Sonder">
<defs>
  <clipPath id="drop"><circle r="32.000"/></clipPath>
  <!-- clear water: shaded at the top, light gathered at the bottom -->
  <linearGradient id="water" x1="0" y1="0" x2="0" y2="1">
    <stop offset="0" stop-color="#cfc8ba"/>
    <stop offset=".55" stop-color="#efebe2"/>
    <stop offset="1" stop-color="#ffffff"/>
  </linearGradient>
</defs>
<circle r="96.500" fill="#fbf6ea"/>
<circle r="96.500" fill="none" stroke="#b8893a" stroke-width="7.000"/>
<circle r="93.000" fill="none" stroke="#e8cf98" stroke-width="1.260"/>
<polygon points="0.000,-100.000 95.106,-30.902 58.779,80.902 -58.779,80.902 -95.106,-30.902" fill="none" stroke="#1c1a2e" stroke-width="4.500" stroke-linejoin="miter"/>
<polygon points="58.779,-80.902 95.106,30.902 0.000,100.000 -95.106,30.902 -58.779,-80.902" fill="none" stroke="#1c1a2e" stroke-width="4.500" stroke-linejoin="miter"/>
<polygon points="0.000,-66.000 62.770,-20.395 38.794,53.395 -38.794,53.395 -62.770,-20.395" fill="none" stroke="#1c1a2e" stroke-width="2.970" stroke-linejoin="miter"/>
<polygon points="38.794,-53.395 62.770,20.395 0.000,66.000 -62.770,20.395 -38.794,-53.395" fill="none" stroke="#1c1a2e" stroke-width="2.970" stroke-linejoin="miter"/>
<polygon points="0.000,-48.314 45.950,-14.930 28.398,39.087 -28.398,39.087 -45.950,-14.930" fill="none" stroke="#1c1a2e" stroke-width="2.174" stroke-linejoin="miter"/>
<polygon points="28.398,-39.087 45.950,14.930 0.000,48.314 -45.950,14.930 -28.398,-39.087" fill="none" stroke="#1c1a2e" stroke-width="2.174" stroke-linejoin="miter"/>
<circle r="32.000" fill="url(#water)"/>
<g clip-path="url(#drop)">
<circle cy="17.600" r="30.400" fill="none" stroke="#e86a6a" stroke-width="2.240" stroke-opacity=".28"/>
<circle cy="17.600" r="28.160" fill="none" stroke="#f0a35a" stroke-width="2.240" stroke-opacity=".28"/>
<circle cy="17.600" r="25.920" fill="none" stroke="#ecd36a" stroke-width="2.240" stroke-opacity=".28"/>
<circle cy="17.600" r="23.680" fill="none" stroke="#7fc48a" stroke-width="2.240" stroke-opacity=".28"/>
<circle cy="17.600" r="21.440" fill="none" stroke="#6aa6dc" stroke-width="2.240" stroke-opacity=".28"/>
<circle cy="17.600" r="19.200" fill="none" stroke="#9b85d0" stroke-width="2.240" stroke-opacity=".28"/>
</g>
<circle r="35.000" fill="none" stroke="#1c1a2e" stroke-width="6.000"/>
<circle cx="0.000" cy="-16.000" r="3.200" fill="#ffffff"/>
</svg>
